<svg width="34" height="14" viewBox="0 0 34 14" fill="none" xmlns="http://www.w3.org/2000/svg">
<path d="M1.805 14C1.67833 14 1.56433 13.9557 1.463 13.867C1.37433 13.7657 1.33 13.6517 1.33 13.525V1.175C1.33 1.03567 1.37433 0.921666 1.463 0.833C1.56433 0.744333 1.67833 0.699999 1.805 0.699999H7.6C9.196 0.699999 10.3803 1.02933 11.153 1.688C11.9383 2.334 12.331 3.25867 12.331 4.462C12.331 5.09533 12.1663 5.63367 11.837 6.077C11.5203 6.50767 11.1593 6.82433 10.754 7.027C11.2733 7.26767 11.7103 7.654 12.065 8.186C12.4197 8.718 12.597 9.31333 12.597 9.972C12.597 11.2387 12.179 12.2267 11.343 12.936C10.507 13.6453 9.31633 14 7.771 14H1.805ZM7.22 5.982C7.72667 5.982 8.113 5.85533 8.379 5.602C8.645 5.336 8.778 4.98767 8.778 4.557C8.778 4.139 8.645 3.80333 8.379 3.55C8.113 3.29667 7.72667 3.17 7.22 3.17H4.75V5.982H7.22ZM7.391 11.53C7.91033 11.53 8.31567 11.378 8.607 11.074C8.89833 10.77 9.044 10.4027 9.044 9.972C9.044 9.516 8.89833 9.14233 8.607 8.851C8.31567 8.547 7.91033 8.395 7.391 8.395H4.75V11.53H7.391ZM20.6054 14C20.504 14 20.409 13.962 20.3204 13.886C20.2444 13.7973 20.2064 13.7023 20.2064 13.601C20.2064 13.525 20.2127 13.468 20.2254 13.43L24.6904 1.232C24.7284 1.08 24.8107 0.953333 24.9374 0.851999C25.064 0.750666 25.2287 0.699999 25.4314 0.699999H28.2434C28.446 0.699999 28.6107 0.750666 28.7374 0.851999C28.864 0.953333 28.9464 1.08 28.9844 1.232L33.4304 13.43L33.4684 13.601C33.4684 13.7023 33.424 13.7973 33.3354 13.886C33.2594 13.962 33.1644 14 33.0504 14H30.7134C30.4094 14 30.2067 13.867 30.1054 13.601L29.3644 11.663H24.2914L23.5694 13.601C23.468 13.867 23.259 14 22.9424 14H20.6054ZM28.6044 8.927L26.8374 3.911L25.0704 8.927H28.6044Z" fill="white"/>
<path d="M11.8009 14C11.6616 14 11.5413 13.9557 11.4399 13.867C11.3513 13.7783 11.3069 13.6643 11.3069 13.525V12.176C11.3069 11.796 11.4653 11.4857 11.7819 11.245L13.7579 9.307C14.9106 8.42033 15.7846 7.73 16.3799 7.236C16.9753 6.742 17.4249 6.29233 17.7289 5.887C18.0329 5.48167 18.1849 5.09533 18.1849 4.728C18.1849 3.72733 17.6909 3.227 16.7029 3.227C16.1836 3.227 15.7846 3.38533 15.5059 3.702C15.2273 4.006 15.0436 4.39233 14.9549 4.861C14.8789 5.15233 14.6636 5.298 14.3089 5.298H11.9339C11.8199 5.298 11.7249 5.26 11.6489 5.184C11.5729 5.108 11.5349 5.013 11.5349 4.899C11.5603 4.08833 11.7819 3.34733 12.1999 2.676C12.6306 1.992 13.2323 1.45367 14.0049 1.061C14.7903 0.655666 15.6896 0.452999 16.7029 0.452999C17.7669 0.452999 18.6789 0.623999 19.4389 0.965999C20.1989 1.308 20.7753 1.78933 21.1679 2.41C21.5606 3.03067 21.7569 3.75267 21.7569 4.576C21.7569 5.46267 21.4783 6.27333 20.9209 7.008C20.3763 7.73 19.5403 8.51533 18.4129 9.364L16.6649 11.131H21.5479C21.6873 11.131 21.8013 11.1753 21.8899 11.264C21.9913 11.3527 22.0419 11.4667 22.0419 11.606V13.525C22.0419 13.6643 21.9913 13.7783 21.8899 13.867C21.8013 13.9557 21.6873 14 21.5479 14H11.8009Z" fill="#20FFD3"/>
<line x1="1.5" y1="0.5" x2="1.5" y2="13.5" stroke="#20FFD3" stroke-linecap="round"/>
<line x1="1.5" y1="13.5" x2="33.5" y2="13.5" stroke="#20FFD3" stroke-linecap="round"/>
</svg>
