<svg width="37" height="14" viewBox="0 0 37 14" fill="none" xmlns="http://www.w3.org/2000/svg">
<path d="M1.57109 14C1.43175 14 1.31142 13.9493 1.21009 13.848C1.10875 13.7467 1.05809 13.6263 1.05809 13.487V1.213C1.05809 1.07367 1.10875 0.953333 1.21009 0.851999C1.31142 0.750666 1.43175 0.699999 1.57109 0.699999H7.87909C9.67775 0.699999 11.0014 1.02933 11.8501 1.688C12.7114 2.34667 13.1421 3.34733 13.1421 4.69C13.1421 5.23467 12.9838 5.72233 12.6671 6.153C12.3504 6.571 12.0021 6.875 11.6221 7.065C12.1288 7.26767 12.5531 7.62867 12.8951 8.148C13.2498 8.65467 13.4271 9.212 13.4271 9.82C13.4271 11.226 12.9711 12.2773 12.0591 12.974C11.1471 13.658 9.81709 14 8.06909 14H1.57109ZM7.40409 5.697C7.65742 5.697 7.84742 5.61467 7.97409 5.45C8.11342 5.27267 8.18309 5.07 8.18309 4.842C8.18309 4.614 8.11342 4.41133 7.97409 4.234C7.84742 4.05667 7.65742 3.968 7.40409 3.968H5.80809V5.697H7.40409ZM7.57509 10.732C7.86642 10.732 8.08175 10.637 8.22109 10.447C8.37309 10.257 8.44909 10.0417 8.44909 9.801C8.44909 9.56033 8.36675 9.345 8.20209 9.155C8.05009 8.965 7.84109 8.87 7.57509 8.87H5.80809V10.732H7.57509ZM22.0621 14C21.9481 14 21.8468 13.962 21.7581 13.886C21.6821 13.7973 21.6441 13.696 21.6441 13.582C21.6441 13.5313 21.6505 13.487 21.6631 13.449L25.9001 1.327C25.9508 1.16233 26.0458 1.01667 26.1851 0.889999C26.3245 0.763332 26.5145 0.699999 26.7551 0.699999H30.8781C31.1188 0.699999 31.3088 0.763332 31.4481 0.889999C31.5875 1.01667 31.6825 1.16233 31.7331 1.327L35.9701 13.449C35.9828 13.487 35.9891 13.5313 35.9891 13.582C35.9891 13.696 35.9448 13.7973 35.8561 13.886C35.7801 13.962 35.6851 14 35.5711 14H32.0561C31.6761 14 31.4291 13.8417 31.3151 13.525L30.8591 12.271H26.7741L26.3181 13.525C26.2041 13.8417 25.9571 14 25.5771 14H22.0621ZM29.8901 8.566L28.8071 5.032L27.7431 8.566H29.8901Z" fill="white"/>
<path d="M12.2942 14C12.1549 14 12.0345 13.9493 11.9332 13.848C11.8319 13.7467 11.7812 13.6263 11.7812 13.487V11.511C11.7812 11.055 11.9395 10.713 12.2562 10.485L12.4652 10.333L13.1872 9.82C14.6059 8.794 15.6509 8.02133 16.3222 7.502C17.0062 6.97 17.5382 6.495 17.9182 6.077C18.2982 5.64633 18.4882 5.26633 18.4882 4.937C18.4882 4.69633 18.4439 4.51267 18.3552 4.386C18.2792 4.24667 18.0955 4.177 17.8042 4.177C17.5635 4.177 17.3735 4.234 17.2342 4.348C17.0949 4.44933 16.9999 4.55067 16.9492 4.652C16.9112 4.75333 16.8479 4.918 16.7592 5.146C16.6959 5.31067 16.6009 5.42467 16.4742 5.488C16.3475 5.55133 16.1892 5.583 15.9992 5.583H12.4272C12.3132 5.583 12.2119 5.545 12.1232 5.469C12.0472 5.38033 12.0092 5.279 12.0092 5.165C12.0219 4.22767 12.2815 3.40433 12.7882 2.695C13.2949 1.973 13.9789 1.41567 14.8402 1.023C15.7142 0.630333 16.6959 0.433999 17.7852 0.433999C19.5332 0.433999 20.9139 0.813999 21.9272 1.574C22.9532 2.32133 23.4662 3.36 23.4662 4.69C23.4662 5.66533 23.1242 6.55833 22.4402 7.369C21.7689 8.167 20.7429 9.041 19.3622 9.991L19.2292 10.086H23.2382C23.3775 10.086 23.4979 10.1367 23.5992 10.238C23.7005 10.3393 23.7512 10.4597 23.7512 10.599V13.487C23.7512 13.6263 23.7005 13.7467 23.5992 13.848C23.4979 13.9493 23.3775 14 23.2382 14H12.2942Z" fill="#20FFD3"/>
<line x1="1.5" y1="0.5" x2="1.5" y2="13.5" stroke="#20FFD3" stroke-linecap="round"/>
<line x1="1.5" y1="13.5" x2="36.5" y2="13.5" stroke="#20FFD3" stroke-linecap="round"/>
</svg>
